<svg xmlns="http://www.w3.org/2000/svg" xmlns:xlink="http://www.w3.org/1999/xlink" width="1000" zoomAndPan="magnify" viewBox="0 0 750 749.999995" height="1000" preserveAspectRatio="xMidYMid meet" version="1.0"><defs><g/><clipPath id="3d55cffca8"><path d="M 375 0 C 167.894531 0 0 167.894531 0 375 C 0 582.105469 167.894531 750 375 750 C 582.105469 750 750 582.105469 750 375 C 750 167.894531 582.105469 0 375 0 Z M 375 0 " clip-rule="nonzero"/></clipPath></defs><g clip-path="url(#3d55cffca8)"><rect x="-75" width="900" fill="#000000" y="-74.999999" height="899.999994" fill-opacity="1"/></g><g fill="#ffffff" fill-opacity="1"><g transform="translate(89.363055, 462.277922)"><g><path d="M 58.40625 -178.25 L 58.40625 -71.609375 C 58.40625 -60.941406 61.023438 -52.726562 66.265625 -46.96875 C 71.515625 -41.21875 79.21875 -38.34375 89.375 -38.34375 C 99.53125 -38.34375 107.316406 -41.21875 112.734375 -46.96875 C 118.148438 -52.726562 120.859375 -60.941406 120.859375 -71.609375 L 120.859375 -178.25 L 164.28125 -178.25 L 164.28125 -71.859375 C 164.28125 -55.941406 160.894531 -42.484375 154.125 -31.484375 C 147.351562 -20.484375 138.253906 -12.1875 126.828125 -6.59375 C 115.398438 -1.007812 102.660156 1.78125 88.609375 1.78125 C 74.566406 1.78125 62 -0.96875 50.90625 -6.46875 C 39.820312 -11.976562 31.0625 -20.273438 24.625 -31.359375 C 18.195312 -42.441406 14.984375 -55.941406 14.984375 -71.859375 L 14.984375 -178.25 Z M 58.40625 -178.25 "/></g></g></g><g fill="#ffffff" fill-opacity="1"><g transform="translate(268.362087, 462.277922)"><g><path d="M 59.15625 -33.515625 L 116.03125 -33.515625 L 116.03125 0 L 15.75 0 L 15.75 -178.25 L 59.15625 -178.25 Z M 59.15625 -33.515625 "/></g></g></g><g fill="#ffffff" fill-opacity="1"><g transform="translate(389.472078, 462.277922)"><g><path d="M 100.046875 1.78125 C 83.285156 1.78125 67.921875 -2.109375 53.953125 -9.890625 C 39.992188 -17.679688 28.90625 -28.5625 20.6875 -42.53125 C 12.476562 -56.5 8.375 -72.195312 8.375 -89.625 C 8.375 -107.0625 12.476562 -122.71875 20.6875 -136.59375 C 28.90625 -150.476562 39.992188 -161.3125 53.953125 -169.09375 C 67.921875 -176.882812 83.285156 -180.78125 100.046875 -180.78125 C 116.796875 -180.78125 132.15625 -176.882812 146.125 -169.09375 C 160.09375 -161.3125 171.09375 -150.476562 179.125 -136.59375 C 187.164062 -122.71875 191.1875 -107.0625 191.1875 -89.625 C 191.1875 -72.195312 187.125 -56.5 179 -42.53125 C 170.875 -28.5625 159.867188 -17.679688 145.984375 -9.890625 C 132.109375 -2.109375 116.796875 1.78125 100.046875 1.78125 Z M 100.046875 -37.828125 C 114.265625 -37.828125 125.644531 -42.566406 134.1875 -52.046875 C 142.738281 -61.523438 147.015625 -74.050781 147.015625 -89.625 C 147.015625 -105.375 142.738281 -117.941406 134.1875 -127.328125 C 125.644531 -136.722656 114.265625 -141.421875 100.046875 -141.421875 C 85.648438 -141.421875 74.175781 -136.765625 65.625 -127.453125 C 57.082031 -118.148438 52.8125 -105.539062 52.8125 -89.625 C 52.8125 -73.882812 57.082031 -61.316406 65.625 -51.921875 C 74.175781 -42.523438 85.648438 -37.828125 100.046875 -37.828125 Z M 100.046875 -37.828125 "/></g></g></g><g fill="#ffffff" fill-opacity="1"><g transform="translate(589.03697, 462.277922)"><g><path d="M 36.0625 2.03125 C 28.4375 2.03125 22.210938 -0.207031 17.390625 -4.6875 C 12.566406 -9.175781 10.15625 -14.722656 10.15625 -21.328125 C 10.15625 -28.097656 12.566406 -33.769531 17.390625 -38.34375 C 22.210938 -42.914062 28.4375 -45.203125 36.0625 -45.203125 C 43.507812 -45.203125 49.644531 -42.914062 54.46875 -38.34375 C 59.289062 -33.769531 61.703125 -28.097656 61.703125 -21.328125 C 61.703125 -14.722656 59.289062 -9.175781 54.46875 -4.6875 C 49.644531 -0.207031 43.507812 2.03125 36.0625 2.03125 Z M 36.0625 2.03125 "/></g></g></g></svg>